<svg enable-background="new 0 0 160.472 160.81" height="160.81" viewBox="0 0 160.472 160.81" width="160.472" xmlns="http://www.w3.org/2000/svg"><path clip-rule="evenodd" d="m139.271 0h-56.92c-2.909 0-5.68.588-8.204 1.649h2.37c11.47 0 20.767 9.298 20.767 20.767v115.979c0 11.468-9.297 20.767-20.767 20.767h-2.371c2.524 1.061 5.295 1.648 8.205 1.648h56.92c11.71 0 21.201-9.492 21.201-21.201v-118.407c0-11.709-9.492-21.202-21.201-21.202z" fill="#61b66d" fill-rule="evenodd"/><path d="m148.022 91.342c0 4.084-3.311 7.395-7.395 7.395h-22.183c-4.084 0-7.394-3.31-7.394-7.395v-7.474h-.003v-14.401c0-4.084 3.311-7.394 7.395-7.394h22.183c4.084 0 7.394 3.31 7.394 7.394v13.174h.003zm-2.466-21.875c0-2.722-2.208-4.929-4.93-4.929h-22.183c-2.723 0-4.93 2.207-4.93 4.929v13.174h.002v8.701c0 2.723 2.208 4.93 4.93 4.93h22.183c2.723 0 4.93-2.207 4.93-4.93v-7.474h-.002zm-17.496 17.096c-.453.452-1.189.452-1.642 0 0 0 0-.005-.003-.005l-5.442-5.443c-.453-.453-.453-1.185 0-1.64.451-.453 1.186-.453 1.641 0l4.628 4.627 9.825-9.828c.451-.453 1.184-.453 1.636 0 .453.453.453 1.189 0 1.642z" style="fill-rule:evenodd;clip-rule:evenodd;fill:#fff;stroke:#fff;stroke-width:2;stroke-miterlimit:10"/><path d="m78.182 9c6.728 0 12.201 5.474 12.201 12.202v118.408c0 6.728-5.474 12.201-12.201 12.201h-56.92c-6.727 0-12.2-5.473-12.2-12.201v-118.408c0-6.728 5.473-12.202 12.2-12.202zm0-9h-56.92c-11.707 0-21.2 9.493-21.2 21.202v118.408c0 11.708 9.493 21.201 21.2 21.201h56.919c11.71 0 21.201-9.492 21.201-21.201v-118.408c.001-11.709-9.49-21.202-21.2-21.202z" fill="#181716"/><path d="m49.639 90.412c12.742 0 23.069 10.327 23.069 23.068 0 12.74-10.327 23.069-23.069 23.069-12.738 0-23.067-10.329-23.067-23.069-.001-12.741 10.328-23.068 23.067-23.068m0-9c-17.682 0-32.067 14.386-32.067 32.068 0 17.683 14.385 32.069 32.067 32.069 17.683 0 32.069-14.386 32.069-32.069 0-17.682-14.386-32.068-32.069-32.068z" fill="#181716"/><g clip-rule="evenodd"><path d="m72.957 46.223-23.569 23.583-23.568-23.586c-2.649-2.7-4.285-6.399-4.285-10.481 0-8.267 6.702-14.968 14.968-14.968 5.485 0 10.278 2.949 12.885 7.347 2.606-4.398 7.401-7.347 12.884-7.347 8.268 0 14.97 6.701 14.97 14.968 0 4.082-1.636 7.783-4.285 10.484z" fill="none" stroke="#181716" stroke-miterlimit="10" stroke-width="9"/><path d="m49.64 105.223c4.561 0 8.26 3.698 8.26 8.257 0 4.562-3.699 8.258-8.26 8.258-4.56 0-8.257-3.696-8.257-8.258 0-4.559 3.697-8.257 8.257-8.257z" fill="#181716" fill-rule="evenodd"/></g></svg>
