<svg version="1" xmlns="http://www.w3.org/2000/svg" width="1717.333" height="1717.333" viewBox="0 0 1288.000000 1288.000000"><path d="M401.9 1.4c-.2.2-2.9.7-5.9 1-6.1.6-8.5 1-18 3.2-12.4 2.8-37 11.8-37 13.6 0 .4-.8.8-1.9.8-1 0-2.4.7-3.1 1.5-.7.8-1.8 1.5-2.4 1.5-.6 0-3.5 1.6-6.3 3.5-2.9 1.9-5.7 3.5-6.3 3.5-.5 0-1 .3-1 .7 0 .5-1.7 1.9-3.8 3.3-6.3 4.2-23.4 20.3-30.2 28.5-13 15.6-24.4 36.4-30.5 55.5-1.5 4.7-2.9 9.2-3.2 10-.4.8-.5 1.9-.4 2.3.1.5-.4 2.7-1 5s-1.3 5.5-1.6 7.2c-.2 1.6-.7 4.1-1.1 5.5-1.2 4.6-1.3 988.2-.1 989.7.6.7.9 1.3.7 1.3-.3 0-.1 2.1.3 4.7.4 2.7 1.1 6.6 1.4 8.8.9 5.4 4.7 18.5 7.8 26.5 2.6 6.9 8.8 20.2 9.8 21 .3.3.8 1.3 1.2 2.2.7 1.8 9.5 15.5 11.2 17.4.5.7 2.5 3.1 4.4 5.5 6.4 8.1 21.6 22.7 30.6 29.4 2.2 1.7 4.2 3.3 4.3 3.7.2.5.8.8 1.4.8.5 0 2.8 1.3 5.2 2.9 4.3 3 24 13.2 26 13.5.6.1 1.6.4 2.1.8 1.3.8 11.8 4.3 17.5 5.8 7.4 2 9.6 2.5 16.5 3.5 1.7.3 5 .8 7.5 1.3 6 1 488.5.9 497.5-.1 3.9-.4 8.6-1.2 10.5-1.7 1.9-.5 4.6-1.1 6-1.3 6.3-1.1 17-4.4 23.5-7.2 1.7-.8 4.2-1.7 5.8-2 1.5-.4 2.7-1.1 2.7-1.5 0-.4 1.1-1.1 2.5-1.4 2.3-.6 20.1-10.5 22.9-12.7.6-.5 4.3-3.2 8.1-6 13.6-10 31.6-29.9 41.7-46.2 5.6-8.9 15.2-29.8 16.2-35.2.2-1.1.9-3.2 1.5-4.8.6-1.5 1.3-3.8 1.5-5 .3-1.2 1.2-5.4 2-9.2.9-3.9 1.9-9.7 2.3-13 1-7.9 1-981.2 0-989-.8-6.4-1.3-9.5-2.1-13.5-1-4.2-2-9.5-2.1-10.2 0-.3-.3-1-.7-1.4-.5-.4-.8-1.5-.8-2.5s-.5-3-1.1-4.6c-.6-1.5-1-2.8-.9-2.8.2 0-5.7-13.8-7.6-18-1.1-2.2-2.3-4.3-2.9-4.7-.5-.4-.7-.8-.2-.8.4 0-1.5-3.6-4.3-8.1-2.7-4.4-5-8.4-5-8.9s-.3-1-.7-1.2c-.5-.2-2.1-2.1-3.8-4.3-7.7-10.4-20.1-23.3-29.5-30.6-4.1-3.3-8-6.3-8.6-6.8-.5-.5-2.1-1.4-3.5-2.1-1.3-.7-2.6-1.6-2.9-2-.5-.6-5.5-3.5-15-8.7-4.1-2.3-19.3-8.5-22.2-9.2-.4-.1-2.7-.9-5-1.7-2.4-.9-5.2-1.7-6.3-1.9-1.1-.1-2-.3-2-.4 0-.2-.9-.4-2-.6-3.2-.6-12.7-2.4-16.5-3.2-3.6-.8-492.3-1.6-493.1-.9zM889 74.3c5.8 1 21.8 6.4 24.7 8.3 1.2.8 2.9 1.4 3.8 1.4.8 0 1.5.3 1.5.8 0 .4 1.4 1.3 3 2 1.7.8 3.6 1.9 4.3 2.5.6.7 3.1 2.5 5.3 4 4 2.7 17.4 16 17.4 17.3 0 .3 1.5 2.4 3.3 4.7 4.9 6 11.5 20 14.1 29.7 2.4 9 2.8 11.8 3.2 27.5.2 8.2.5 15.4.5 16 .1.5 0 1.4-.1 2-.2 1.2-.2 12.7 0 14 .2.5.2 1.4.1 1.8-.3 1.7-.2 45.9.1 46.2.2.2.1 3.8-.2 8-.3 4.2-.2 7.9.3 8.2.4.2.5.8.2 1.3-.5.7-.8 43.6-.4 46.5.1.5 0 1.4-.1 2-.2 1.2-.2 12.7 0 14 .2.5.2 1.4.1 1.8-.3 1.7-.2 45.9.1 46.2.2.2.1 3.8-.2 8-.3 4.2-.2 7.9.3 8.2.4.2.5.8.2 1.3-.5.7-.8 43.6-.4 46.5.1.5 0 1.4-.1 2-.2 1.2-.2 12.7 0 14 .2.5.2 1.4.1 1.8-.3 1.7-.2 45.9.1 46.2.2.2.1 3.8-.2 8-.3 4.2-.2 7.9.3 8.2.4.2.5.8.2 1.3-.5.7-.8 43.6-.4 46.5.1.5 0 1.4-.1 2-.2 1.2-.2 12.7 0 14 .2.5.2 1.4.1 1.8-.3 1.7-.2 45.9.1 46.2.2.2.1 3.8-.2 8-.3 4.2-.2 7.9.3 8.2.4.2.5.8.2 1.3-.5.7-.8 43.6-.4 46.5.1.5 0 1.4-.1 2-.2 1.2-.2 12.7 0 14 .2.5.2 1.4.1 1.8-.3 1.7-.2 45.9.1 46.2.2.2.1 3.8-.2 8-.3 4.2-.2 7.9.3 8.2.4.2.5.8.2 1.3-.5.7-.8 43.6-.4 46.5.1.5 0 1.4-.1 2-.2 1.2-.2 12.7 0 14 .2.5.2 1.4.1 1.8-.3 1.7-.2 45.9.1 46.2.2.2.1 3.8-.2 8-.3 4.2-.2 7.9.3 8.2.4.2.5.8.2 1.3-.5.7-.8 43.6-.4 46.5.1.5 0 1.4-.1 2-.2 1.2-.2 12.7 0 14 .2.5.2 1.4.1 1.8-.3 1.7-.2 45.9.1 46.2.2.2.1 11-.2 24-.3 13-.2 23.9.3 24.2.4.2.5.8.2 1.3-.3.4-.6 13.7-.6 29.4-.1 23.9-.4 30.1-2.1 38.3-1.1 5.4-2.4 10.2-2.9 10.7-.5.6-.9 1.8-.9 2.8 0 1.8-8.6 19.2-10.8 21.9-.6.8-3.3 4.1-6 7.4-5.4 6.5-10.8 11.7-16.2 15.5-1.9 1.4-3.7 2.8-4 3.1-.3.3-2.7 1.8-5.5 3.4-2.7 1.5-5.4 3.1-6 3.5-1.7 1.3-15.6 6.1-22.4 7.6-5.4 1.3-18.1 2.6-22.8 2.5-9.1-.3-12.5-.3-12.9.2-.3.3-1.7.2-3.2-.2-1.5-.4-3.9-.4-5.4 0-1.6.4-2.8.4-2.8 0 0-.5-1.7-.5-3.7-.2-2.1.4-5.3.4-7.1 0-1.8-.3-3.5-.3-3.8.2-.3.5-1 .6-1.6.3-.9-.6-10.1-.9-12.3-.4-.5.1-1.3.1-1.7 0-1-.2-7.6-.2-8.5 0-.5.1-1.2.1-1.8 0-.5-.1-3.2-.2-6-.2-2.7 0-5.4.1-6 .2-.5.1-1.3.1-1.7 0-1-.2-7.6-.2-8.5 0-.5.1-1.2.1-1.8 0-2.2-.4-21.7-.2-22.2.3-.3.3-1.5.2-2.7-.3-1.3-.4-2.9-.4-3.6 0-.8.5-2.1.5-2.9.1-.8-.5-2.7-.5-4.3-.1-1.5.5-2.8.6-2.8.2 0-.6-6.5-.7-8-.2-.3.2-.9.1-1.5 0-1.3-.3-10.7-.3-12 0-.5.1-1.3.1-1.7 0-1.8-.4-7.9-.3-8.4.3-.3.3-1.6.2-2.8-.3-1.3-.4-2.9-.4-3.6 0-.8.5-2.1.5-2.9.1-.8-.5-2.6-.5-4.1-.1-1.5.4-3.3.4-4 0-.6-.4-2.6-.4-4.4-.1-1.7.4-4.7.4-6.6.1-1.9-.3-5.1-.3-7 0-1.9.3-4.8.3-6.5 0-1.6-.4-4-.3-5.1.1-1.2.4-2.5.5-2.8.1-.8-.8-10.3-.5-11.6.3-.6.3-1 .3-1-.2 0-.4-2.6-.7-5.7-.6-11.3.5-15.3.4-16.3-.2-.6-.3-1-.2-1 .3 0 .6-1.4.7-3.5.2-1.9-.4-3.7-.4-4 .1-.3.4-1.6.4-2.8 0-1.2-.5-3.2-.5-4.4 0-1.2.4-2.5.4-2.7 0-.3-.5-2-.5-3.8-.2-1.8.4-5 .4-7 0-2.1-.3-3.8-.3-3.8.1s-1.6.4-3.5 0-3.7-.4-4 .1c-.3.4-1.6.5-2.8 0-1.2-.5-3-.5-4.1-.2-1 .4-4.1.4-6.8.1-2.7-.4-5.1-.3-5.4.1-.3.5-1.5.4-2.8-.1-1.2-.4-2.9-.5-3.6 0-.7.4-2.5.4-4 0s-3.3-.4-4.1 0c-.7.5-2 .5-3 0-.9-.5-1.9-.7-2.2-.4-.5.5-3.6.6-13.4.2-2.4-.1-4.5.1-4.9.5-.3.3-1.6.2-2.8-.2-1.1-.4-3.4-.5-5.1-.1-1.6.3-4.5.3-6.2-.1-1.8-.4-3.3-.3-3.3.1 0 .5-1.3.5-2.9 0-1.5-.4-3.4-.4-4.2 0-.7.5-2 .5-3 0-.9-.5-1.9-.7-2.2-.4-.5.5-3.6.6-13.4.2-2.4-.1-4.5.1-4.9.5-.3.3-1.6.2-2.9-.3-1.3-.5-2.5-.6-2.8-.4-.5.6-5.5.6-13.5.1-2.3-.1-4.2.2-4.2.6 0 .5-.5.5-1 .2-1-.6-3.8-.7-15.8-.5-2.8.1-5.7-.2-6.2-.5-.6-.3-1-.2-1 .3 0 .6-1.4.7-3.5.2-1.9-.4-3.7-.4-4 .1-.3.4-1.6.5-2.8 0-1.2-.5-3.1-.5-4.2-.1s-2.3.6-2.7.4c-.4-.3-3.5-.6-7-.9-12.4-.8-21.9-3.2-33.4-8.5s-19.7-11.1-28.9-20.4c-7.3-7.4-9.3-9.9-15.1-19.1-3.2-5.1-8.7-18.3-9.9-23.8-.2-1-.7-2.6-.9-3.5-.3-1-.9-3.3-1.3-5.2-.4-1.9-.8-221.8-1-488.5-.2-411.3 0-486.1 1.2-492 6.3-31.9 24.9-57 52.4-71 7-3.5 21.2-8.1 27.6-9 2.7-.3 5.1-.8 5.4-1.1.8-.7 478.5.2 483.1.9z"/><path d="M526.8 131.5c-.2.2-2.9.6-6 .9-7.8.9-15.7 2.3-19.6 3.5-1.8.5-3.3.9-3.5.9-.1-.1-3.3.9-7.2 2.2-3.8 1.4-7.2 2.5-7.5 2.5-.3 0-1.5.6-2.7 1.3-1.3.7-2.3 1.1-2.3.8 0-1.1-26.3 13.4-28 15.4-.3.3-2.1 1.7-4 3-5.3 3.7-8.8 6.8-17.6 15.5-21.3 21.2-35.1 46.4-42.1 77-2.1 9.7-2.6 15.5-2.6 32 0 15.3.4 21.8 1.8 29.5 1.4 7.3 1.7 8.5 2.6 10.2.5 1 .7 1.8.5 1.8-.3 0 1.2 4.9 3.3 10.9 4 11.2 9.4 22.5 14.3 29.8 1.5 2.3 2.8 4.6 2.8 5.1 0 .6.3 1.2.8 1.4.4.1 2.6 2.9 5 6 5.7 7.8-2.7-.8 118.4 120.5 87.2 87.4 108.3 108.1 109.7 107.3 1.7-.9 215.6-215.2 220.6-221 1.7-1.9 4.8-6 7-9s4.5-6.1 5.2-6.8c.7-.7 1.3-1.8 1.3-2.3 0-.5 1.6-3.3 3.5-6.4 2-3 3.2-5.5 2.8-5.5-.4 0-.3-.4.2-.8 3.6-2.6 13.5-31.8 15.1-44.5.3-2.3.9-6.5 1.3-9.4.9-5.9.7-29.9-.3-35.8-.8-4.4-2.5-13.7-3.2-17.4-1.6-8-7.5-23.5-13.2-34.6l-3.6-7.2c-.6-1.3-1.4-2.3-1.8-2.3-.5 0-.8-.5-.8-1 0-2.3-13.2-19.2-21.5-27.6-5.7-5.8-15.6-14.2-20.5-17.4-1.2-.8-3.3-2.3-4.5-3.3-1.3-.9-2.8-1.7-3.4-1.7-.6 0-1.1-.5-1.1-1 0-.6-.6-1-1.4-1-.7 0-1.9-.7-2.6-1.5-.7-.8-1.6-1.3-2-1-.5.3-1 .2-1.2-.2-.7-1.8-23.1-11.3-29.8-12.8-.8-.2-4.2-1-7.5-1.8-12.2-3.1-20.8-4-36-4.1-11.8 0-24.9.9-26.5 1.9-.3.2-2.4.6-4.6.9-2.1.3-7 1.4-10.9 2.6-3.8 1.1-7.7 2.2-8.6 2.4-3.5.9-16.8 6.8-23.3 10.4-3.7 2-8 4.3-9.4 5.1-1.5.8-2.9 1.7-3.2 2-.3.3-2.7 2.1-5.5 4-2.7 1.9-5.5 3.9-6 4.5-.6.6-2 1.9-3.2 2.9-2.1 1.9-2.2 1.8-6-1-2-1.5-4.5-3.6-5.5-4.6-1-.9-2.2-1.7-2.6-1.7-.5 0-1.7-.8-2.8-1.8-1.1-1-4.2-3.1-6.9-4.7-2.8-1.6-5.1-3.3-5.3-3.7-.2-.4-.9-.8-1.5-.8-.7 0-4.1-1.5-7.7-3.3-3.6-1.9-8.3-4-10.5-4.7-2.2-.7-4.4-1.6-5-2-.5-.4-2.1-1-3.5-1.3-1.4-.3-5.2-1.2-8.5-2.2-7.3-2-14.7-3.5-20-4.1-4.5-.5-31.3-1.2-31.7-.9zm26.7 72.9c1.1.2 2 .5 2 .6 0 .2 1.4.5 5.5 1.3 11.3 2.2 28.8 12.9 38.8 23.6 3.8 4.1 19.2 26.2 19.2 27.6 0 .3.5 1.1 1.1 1.8 1.2 1.5 4.4 6.4 15.4 24l6 9.6 2.2-2.7c1.2-1.5 2.2-3.3 2.3-4 0-.6.5-1.2 1-1.2.6 0 1-.4 1-.9s2.3-4.4 5-8.5c2.8-4.2 5-8 5-8.6 0-.5.4-1 .8-1 .5 0 1.4-1.1 2-2.5.7-1.4 1.7-3.1 2.2-3.8.6-.7 4.2-6.2 8-12.3 15.6-25 35.7-39.2 61-43.1 5.7-.9 21.3-.8 26.5.1 9.2 1.7 26.5 7.9 27.3 9.8.2.4.8.8 1.3.8.9 0 4 2 9.3 6 3.5 2.7 14.6 14 14.6 14.9 0 .5.4 1.1.9 1.3 1.3.5 9.1 13.6 9.1 15.3 0 .7.4 1.6.8 1.9 1 .6 4.7 13 5.8 19.1.8 4.6.8 21.2 0 27-1.5 11.2-8.7 27.8-16.1 37.4-1.1 1.4-39.1 39.8-84.5 85.4-45.4 45.5-82.6 83.2-82.8 83.7-.2.6-1 1-1.7 1-1.5 0-162.4-160.6-168.4-168-2-2.5-3.9-4.7-4.3-4.8-.5-.2-.8-1-.8-1.7s-.3-1.5-.8-1.7c-1.1-.5-8-14.8-8.8-18.3-.4-1.7-.9-3.5-1.3-4-.3-.6-.7-2.1-.9-3.5-.1-1.4-.7-3.7-1.2-5.2s-.7-8.5-.5-15.5c.3-14.2 2.3-22.8 7.7-34.3 2.8-5.9 4.2-8.1 8.8-14.4 1.9-2.7 13.9-14.7 16.6-16.6 5.8-4.2 8.4-5.8 13.5-8.2 6.4-3 16.7-6.3 22.4-7.2 2.1-.4 4-.8 4.2-.9.4-.5 22.6.1 24.8.7zM634.7 652.6c-.1.1-4.2.5-9.2.8-16.1 1.2-21.9 2-41 6.1-5.4 1.1-29.8 8.6-31 9.5-.5.4-2.8 1.3-5 2s-5.3 2-7 2.8c-1.6.9-3.2 1.6-3.5 1.7-.6.1-14.5 7.1-21.2 10.8-17.9 9.6-45.2 31.2-60.2 47.6-1.7 1.9-4.4 4.9-6.1 6.7-8.7 9.4-24.2 31.4-29.5 41.6-1.4 2.7-2.8 4.8-3.2 4.8-.5 0-.8.5-.8 1 0 .6-2.4 6.1-5.3 12.3-3 6.2-5.9 12.8-6.6 14.7-.7 1.9-1.7 4.4-2.1 5.5-.5 1.1-2.1 5.8-3.5 10.5s-3 9.9-3.6 11.7c-.5 1.8-1.2 4.2-1.5 5.5-.2 1.3-.9 4.5-1.5 7.3-.6 2.7-1.2 5.9-1.4 7-.2 1.1-.6 3.3-.9 5-1 6-1.8 12.1-2.3 17.5-.6 6.6-.6 44.1 0 49 1.9 15.9 3.2 23.8 4.7 28.9.5 1.9.7 3.7.5 4.2-.3.4 0 1.1.6 1.4.5.4.8 1.3.5 2-.2.7-.2 1.6.2 1.9.3.4.7 1.5.9 2.5.3 2.3 8 25.6 9.8 29.6 6.4 14.9 12.5 27.1 17.6 35.4 2.1 3.4 3.9 6.7 3.9 7.2 0 .4.6 1.2 1.3 1.6.7.4 1.8 2 2.4 3.6.7 1.5 1.7 2.7 2.3 2.7.5 0 1 .5 1 1.1 0 .9 6.8 10.3 10.5 14.5.6.7 2.6 3.1 4.5 5.5 4.4 5.4 22.1 23.1 28.1 28.1 10.7 8.8 15.8 12.8 16.7 12.8.6 0 1.2.4 1.4.8.4 1.1 14 10.2 20.9 14 10.2 5.6 23.4 12 30.9 15 4.1 1.6 8.4 3.3 9.5 3.7 1.1.5 2.2.9 2.5 1 .3.1 5 1.5 10.5 3.2 10.5 3.1 23 6.3 26.8 6.7 1.2.2 3.6.6 5.2.9 17.4 3.6 63.3 4.3 76.5 1.3 1.4-.3 4.1-.7 6-.9 2-.2 4.1-.7 4.9-1.1.7-.4 1.5-.6 1.7-.3.3.3 3-.2 6.1-1 3-.8 5.8-1.2 6.1-.9.3.3 1 .2 1.6-.3.7-.6 2.3-1.2 3.6-1.5 4.5-.9 18.4-5.3 25.5-8.1 3.9-1.5 7.5-2.8 8-2.9 1.4-.2 30.6-14.7 31.9-15.8 1.9-1.5 8.7-5.8 9.2-5.8.3 0 3.9-2.5 7.9-5.5 4.1-3 7.7-5.5 7.9-5.5.2 0 1.7-1.1 3.2-2.4 1.6-1.3 5.2-4.3 7.9-6.6 10.3-8.6 25.9-24.5 32.5-33 1.9-2.4 4.1-5.1 4.8-5.8 5-5.4 21.9-32.4 25.7-41 1-2.3 2.3-4.2 2.9-4.2.5 0 .7-.3.4-.6-.4-.3.7-3.2 2.3-6.4 1.6-3.2 2.9-6.1 2.9-6.4 0-.2.5-1.7 1.2-3.3.6-1.5 1.2-3 1.3-3.3.1-.3.5-1.4.9-2.5 2.8-7.2 3.8-10.4 5.7-16.8 2.4-8.3 4.5-16.9 5.3-21.2.2-1.7.7-4.1 1-5.5.3-1.4.8-4.6 1.1-7.1.3-2.5.8-5.6 1-7 2.3-11.8 2.3-45.4 0-63.9-.5-4.3-1.5-10.4-2-13-.3-1.4-.8-3.9-1-5.5-1-5.7-5.7-23-8-29.8-1.3-3.7-2.2-6.7-1.9-6.7.2 0-.2-1-1-2.3-.7-1.2-1.9-4-2.6-6.1-3-9.5-21.9-44.2-28.6-52.6-.7-.8-3.5-4.5-6.3-8.2-2.8-3.7-6.6-8.4-8.4-10.5-4.4-5-22.3-23-27.2-27.3-9.4-8.2-31.4-24-33.4-24-.6 0-1.1-.4-1.1-.9s-1.5-1.5-3.2-2.2c-1.8-.7-3.9-1.9-4.6-2.6-.7-.7-2-1.3-2.8-1.3-.8 0-1.4-.5-1.4-1.2 0-.6-.3-.8-.6-.5-.4.4-1.9-.2-3.4-1.3-1.6-1.1-3.1-2-3.4-2-.3 0-3.3-1.3-6.8-3-13.8-6.5-38.9-15-48.7-16.6-1.9-.3-4.5-1-5.9-1.5-1.4-.5-2.7-.8-2.9-.5-.3.2-1.8 0-3.5-.5-4.7-1.3-14.2-2.6-25.8-3.5-7.1-.5-28.9-1.1-29.3-.8zm24.3 72.8c9.6.8 19.5 2.1 19.5 2.6 0 .1 1.2.3 2.6.5 1.4.2 4.5.9 7 1.5 2.4.7 5.1 1.3 5.9 1.5 6.8 1.4 24.5 8.5 36.5 14.7 6.6 3.4 23.5 14.5 27.6 18 1.5 1.3 4.1 3.5 5.8 5 32.8 27.1 56.2 69.5 62.7 113.8 2.9 19.4 2.1 43.7-2.1 64.9-2.3 11.8-8.4 28.9-15.1 42.6-5.7 11.5-13 23.8-14.5 24.3-.5.2-.9 1-.9 1.7s-.3 1.5-.7 1.7c-.5.1-2.4 2.3-4.3 4.8-5.1 6.7-4.9 6.5-13.1 14.8-10.4 10.7-13.9 13.6-29.5 24.9-7 5.2-36.4 20.2-36.4 18.6 0-.3-.6-.1-1.2.5-1.1.9-11.9 4.5-17 5.8-1 .2-2.7.6-3.8.9-3.2.8-5.2 1.2-10 2.1-4.7.8-5.3.9-13.5 2-10.5 1.5-39.2.8-49-1-1.6-.3-4.3-.8-6-1.1-1.6-.3-4.1-.8-5.5-1.1-1.4-.3-3.6-.7-4.9-1-4.7-1-21.7-6.7-27.1-9.1-16.9-7.6-33-17.2-44.6-26.8-7.5-6.1-25.4-24.7-29.9-30.9-2.2-3.1-5-6.8-6.2-8.3-1.2-1.4-2.7-3.8-3.5-5.2-.7-1.4-1.5-2.8-1.8-3.1-.3-.3-1.2-1.9-2-3.5-.8-1.7-1.7-3.2-2-3.5-1.3-1.3-9.2-18.7-12-26.5-7.1-19.8-10.3-38.6-10.3-61.5 0-9.1.2-18.3.6-20.5.3-2.2.9-6.5 1.3-9.5.3-3 1.8-9.8 3.1-15 1.4-5.2 2.6-10 2.7-10.7.1-.7.5-1.6.9-1.9.4-.4.7-1.3.7-2s.5-2.5 1.2-4.1c.6-1.5 1.2-3.3 1.4-4 .2-1.3 11.7-24.4 13.7-27.8 12.4-20.4 32.4-42.4 48.7-53.5 1.2-.8 3.3-2.5 4.7-3.7 1.5-1.2 3.8-2.7 5.2-3.4 1.4-.7 3.7-2.1 5.1-3 5.5-3.6 17.8-9.8 18.4-9.2.3.4.6.2.6-.4 0-.6 1.2-1.4 2.8-1.9 3.5-1 3.1-.8 7.2-2.6 3.3-1.5 14.1-4.9 15.7-5 .5 0 1.6-.4 2.5-.9 1-.5 3-1.1 4.5-1.3 1.5-.3 3.9-.7 5.3-1.1 1.4-.3 4.1-.8 6-1.1 1.9-.2 4.6-.7 6-.9 1.4-.3 6.3-.8 11-1.1 4.7-.4 8.6-.7 8.7-.8.4-.3 13.7.2 21.3.8z"/><path d="M627.5 845.3c-11.8 3.1-21.3 8.5-30.1 17.2-12.7 12.5-19.1 27.8-19.5 46.6-.1 3.5.1 7.1.4 7.9.3.8.5 2.2.6 3 .1 5.5 7.8 24.9 10.2 25.8.5.2.9.8.9 1.4 0 .5.6 1.5 1.3 2.3.7.7 2.4 2.6 3.8 4.1 8.5 10 25.3 19.1 38.4 20.9 13.9 1.9 26.5 0 38.5-5.8 24.4-11.6 38.3-34.5 37.5-61.7-.6-18.5-7.7-34-21.4-46.8-3.8-3.5-14.2-10.4-16.1-10.7-.3 0-1.4-.6-2.5-1.2-8.9-4.8-29.6-6.3-42-3z"/></svg>